<svg width="38" height="34" viewBox="0 0 38 34" fill="none" xmlns="http://www.w3.org/2000/svg">
<path d="M18.9182 1.57177C0.23104 19.3774 5.65741 30.127 18.084 26.1798" stroke="black" stroke-width="1.5"/>
<path d="M17.7781 25.8308C18.2665 31.6644 14.8219 32.829 14.8219 32.829" stroke="black" stroke-width="1.5"/>
<path d="M18.6804 1.57164C37.3459 19.4 31.9065 30.143 19.4847 26.1806" stroke="black" stroke-width="1.5"/>
<path d="M19.8743 25.832C19.3787 31.6651 22.8219 32.8338 22.8219 32.8338" stroke="black" stroke-width="1.5"/>
<path d="M14.8219 32.829L22.8219 32.8338" stroke="black" stroke-width="1.5"/>
<rect x="11.4166" y="27.1577" width="16" height="15" transform="rotate(-89.9827 11.4166 27.1577)" fill="black"/>
<circle cx="18.9225" cy="7.65996" r="4.5" transform="rotate(-89.9827 18.9225 7.65996)" fill="black"/>
<ellipse cx="18.923" cy="6.15995" rx="4" ry="1.5" transform="rotate(-89.9827 18.923 6.15995)" fill="black"/>
<ellipse cx="18.9795" cy="28.6459" rx="1.49985" ry="4.5075" transform="rotate(-0.791411 18.9795 28.6459)" fill="black"/>
<ellipse cx="18.9153" cy="31.66" rx="1.5" ry="2.5" transform="rotate(-89.9827 18.9153 31.66)" fill="black"/>
<circle cx="23.9204" cy="14.6615" r="4.5" transform="rotate(-89.9827 23.9204 14.6615)" fill="black"/>
<circle cx="12.9198" cy="16.6581" r="4.5" transform="rotate(-89.9827 12.9198 16.6581)" fill="black"/>
<circle cx="10.9192" cy="18.6575" r="4.5" transform="rotate(-89.9827 10.9192 18.6575)" fill="black"/>
<circle cx="25.9195" cy="17.6621" r="4.5" transform="rotate(-89.9827 25.9195 17.6621)" fill="black"/>
<circle cx="26.9183" cy="21.6624" r="4.5" transform="rotate(-89.9827 26.9183 21.6624)" fill="black"/>
<circle cx="11.9183" cy="21.6578" r="4.5" transform="rotate(-89.9827 11.9183 21.6578)" fill="black"/>
<path d="M21.9233 4.10897L26.7554 11.5648L17.2295 11.6525L21.9233 4.10897Z" fill="black"/>
<path d="M13.9227 6.10655L18.7548 13.5623L9.22891 13.6501L13.9227 6.10655Z" fill="black"/>
</svg>
