<svg width="34" height="38" viewBox="0 0 34 38" fill="none" xmlns="http://www.w3.org/2000/svg">
<path d="M32.5882 19.4938C14.7769 0.812053 4.02894 6.24166 7.97992 18.667" stroke="#D0BE8C" stroke-width="1.5"/>
<path d="M8.32885 18.361C2.49536 18.8512 1.32975 15.407 1.32975 15.407" stroke="#D0BE8C" stroke-width="1.5"/>
<path d="M32.5883 19.256C14.7656 37.9269 4.0209 32.4907 7.9795 20.0678" stroke="#D0BE8C" stroke-width="1.5"/>
<path d="M8.32821 20.4572C2.49502 19.9635 1.3273 23.407 1.3273 23.407" stroke="#D0BE8C" stroke-width="1.5"/>
<path d="M1.32975 15.407L1.3273 23.407" stroke="#D0BE8C" stroke-width="1.5"/>
<rect x="7" y="12" width="16" height="15" fill="#D0BE8C"/>
<circle cx="26.5" cy="19.5" r="4.5" fill="#D0BE8C"/>
<ellipse cx="28" cy="19.5" rx="4" ry="1.5" fill="#D0BE8C"/>
<ellipse cx="5.51411" cy="19.5633" rx="1.49985" ry="4.5075" transform="rotate(89.1913 5.51411 19.5633)" fill="#D0BE8C"/>
<ellipse cx="2.5" cy="19.5" rx="1.5" ry="2.5" fill="#D0BE8C"/>
<circle cx="19.5" cy="24.5" r="4.5" fill="#D0BE8C"/>
<circle cx="17.5" cy="13.5" r="4.5" fill="#D0BE8C"/>
<circle cx="15.5" cy="11.5" r="4.5" fill="#D0BE8C"/>
<circle cx="16.5" cy="26.5" r="4.5" fill="#D0BE8C"/>
<circle cx="12.5" cy="27.5" r="4.5" fill="#D0BE8C"/>
<circle cx="12.5" cy="12.5" r="4.5" fill="#D0BE8C"/>
<path d="M30.0519 22.4998L22.5976 27.334L22.5069 17.8082L30.0519 22.4998Z" fill="#D0BE8C"/>
<path d="M28.0519 14.4998L20.5976 19.334L20.5069 9.8082L28.0519 14.4998Z" fill="#D0BE8C"/>
</svg>
